<svg width="1080" height="1080" viewBox="0 0 1080 1080" fill="none" xmlns="http://www.w3.org/2000/svg">
<circle cx="540" cy="540" r="460.5" fill="#7EFE9F" stroke="#373737" stroke-width="51"/>
<path d="M415.029 742.827C468.588 787.46 697.703 834.076 773.578 596.531" stroke="#373737" stroke-width="121" stroke-linecap="round"/>
<path d="M842.477 545.375C838.307 530.796 802.776 489.986 760 514.258" stroke="#373737" stroke-width="21" stroke-linecap="round"/>
<path d="M654.879 360.153L621.668 376.076C609.557 381.882 609.557 399.125 621.668 404.931L654.904 420.865C658.186 422.438 660.833 425.083 662.409 428.363L677.568 459.908C683.337 471.913 700.392 472.025 706.318 460.097L722.179 428.175C723.751 425.011 726.325 422.457 729.501 420.91L762.395 404.888C774.386 399.047 774.386 381.96 762.395 376.119L729.527 360.109C726.335 358.555 723.751 355.983 722.182 352.798L706.341 320.658C700.432 308.668 683.298 308.78 677.547 320.846L662.405 352.611C660.832 355.911 658.176 358.573 654.879 360.153Z" fill="#373737"/>
</svg>
