<svg width="2616" height="1080" viewBox="0 0 2616 1080" fill="none" xmlns="http://www.w3.org/2000/svg">
<path d="M1381.75 755.624C1357.99 753.464 1335.53 745.472 1314.36 731.648L1307.23 814.592C1305.5 834.032 1298.16 849.584 1285.2 861.248C1272.67 873.344 1257.12 878.528 1238.54 876.8C1220.4 875.504 1205.93 867.728 1195.13 853.472C1184.76 839.648 1180.44 823.016 1182.17 803.576L1215.86 419.312C1217.59 399.872 1224.72 384.32 1237.25 372.656C1250.21 360.56 1265.98 355.16 1284.55 356.456C1307.02 358.616 1323.22 368.552 1333.15 386.264C1356.91 368.984 1385.64 361.856 1419.34 364.88C1468.15 369.2 1506.17 391.232 1533.38 430.976C1557.14 465.968 1569.02 507.872 1569.02 556.688C1569.02 611.552 1552.18 658.856 1518.48 698.6C1481.76 741.368 1436.18 760.376 1381.75 755.624ZM1394.06 480.872C1376.35 479.144 1361.66 484.976 1350 498.368C1338.77 511.76 1332.29 529.472 1330.56 551.504C1328.4 573.968 1331.64 593.408 1340.28 609.824C1349.35 626.24 1362.53 635.312 1379.81 637.04C1396.66 638.336 1410.91 631.856 1422.58 617.6C1434.24 603.344 1441.15 585.632 1443.31 564.464C1445.04 542.864 1441.37 523.856 1432.3 507.44C1423.22 491.024 1410.48 482.168 1394.06 480.872ZM1673.91 363.584C1655.34 364.88 1638.92 358.832 1624.67 345.44C1610.41 332.048 1602.63 316.064 1601.34 297.488C1600.47 279.776 1606.52 263.792 1619.48 249.536C1632.87 235.28 1648.64 227.72 1666.79 226.856C1684.93 225.56 1701.13 231.392 1715.39 244.352C1730.07 256.88 1737.85 272.216 1738.71 290.36C1739.58 309.368 1733.75 326.216 1721.22 340.904C1708.69 355.16 1692.92 362.72 1673.91 363.584ZM1694 750.44C1675.43 751.736 1659.87 746.12 1647.35 733.592C1635.25 721.496 1628.77 705.728 1627.91 686.288L1614.95 437.456C1613.65 418.016 1618.4 401.6 1629.2 388.208C1640.43 374.816 1655.34 367.472 1673.91 366.176C1692.49 365.312 1707.83 371.144 1719.92 383.672C1732.45 395.768 1739.15 411.536 1740.01 430.976L1753.62 679.808C1754.48 699.248 1749.3 715.664 1738.07 729.056C1727.27 742.448 1712.58 749.576 1694 750.44ZM1936.3 555.392C1946.67 525.584 1965.24 478.712 1992.03 414.776C2003.26 386.264 2023.35 373.304 2052.29 375.896C2069.57 377.192 2083.83 383.456 2095.06 394.688C2108.02 407.648 2113.63 423.632 2111.91 442.64C2111.04 453.008 2107.8 463.808 2102.19 475.04L1987.49 707.024C1971.94 738.56 1948.61 753.032 1917.51 750.44C1886.83 747.848 1866.53 729.488 1856.59 695.36L1784.02 447.176C1780.56 435.08 1779.27 423.848 1780.13 413.48C1781.43 394.472 1789.42 379.784 1804.11 369.416C1817.5 360.344 1832.62 356.456 1849.47 357.752C1877.98 360.344 1895.69 376.76 1902.6 407L1936.3 555.392ZM2469.25 419.312L2404.45 833.384C2399.26 866.648 2383.71 886.304 2357.79 892.352C2351.31 894.08 2345.05 894.944 2339 894.944C2324.74 894.944 2312.22 890.84 2301.42 882.632C2291.05 874.856 2284.57 864.704 2281.98 852.176C2280.68 847.424 2280.03 841.376 2280.03 834.032C2280.03 816.752 2282.84 792.344 2288.46 760.808C2291.48 746.12 2294.29 731.432 2296.88 716.744L2142.66 494.48C2133.58 481.52 2129.05 468.56 2129.05 455.6C2129.05 441.776 2134.23 429.248 2144.6 418.016C2153.67 407.648 2164.26 401.168 2176.35 398.576C2181.97 397.28 2187.37 396.632 2192.55 396.632C2215.02 396.632 2232.94 406.784 2246.34 427.088L2324.74 547.616L2346.13 403.76C2348.72 387.344 2355.63 373.736 2366.86 362.936C2378.53 351.704 2392.35 346.088 2408.34 346.088C2421.73 346.088 2433.82 349.544 2444.62 356.456C2457.15 364.664 2464.93 375.464 2467.95 388.856C2470.54 399.224 2470.98 409.376 2469.25 419.312Z" fill="#373737"/>
<circle cx="590" cy="540" r="460.5" fill="#7EFE9F" stroke="#373737" stroke-width="51"/>
<path d="M465.029 742.827C518.588 787.46 747.703 834.076 823.578 596.531" stroke="#373737" stroke-width="121" stroke-linecap="round"/>
<path d="M892.477 545.375C888.307 530.796 852.776 489.986 810 514.258" stroke="#373737" stroke-width="21" stroke-linecap="round"/>
<path d="M704.879 360.153L671.668 376.076C659.557 381.882 659.557 399.125 671.668 404.931L704.904 420.865C708.186 422.438 710.833 425.083 712.409 428.363L727.568 459.908C733.337 471.913 750.392 472.025 756.318 460.097L772.179 428.175C773.751 425.011 776.325 422.457 779.501 420.91L812.395 404.888C824.386 399.047 824.386 381.96 812.395 376.119L779.527 360.109C776.335 358.555 773.751 355.983 772.182 352.798L756.341 320.658C750.432 308.668 733.298 308.78 727.547 320.846L712.405 352.611C710.832 355.911 708.176 358.573 704.879 360.153Z" fill="#373737"/>
</svg>
