<svg width="100" height="100" viewBox="0 0 100 100" fill="none" xmlns="http://www.w3.org/2000/svg">
<g clip-path="url(#clip0_1462_1193)">
<rect width="100" height="100" rx="50" fill="#53A7FF"/>
<path fill-rule="evenodd" clip-rule="evenodd" d="M65.7172 44.6389C68.3952 48.0892 70.0088 52.4724 70.0088 57.2253C70.0088 61.9782 68.3608 66.4847 65.597 69.9701L65.3567 70.2694L65.288 69.8821C65.2365 69.5653 65.1678 69.2308 65.0992 68.8963C63.7258 62.6824 59.2282 57.3485 51.8122 53.0181C46.8167 50.1136 43.9498 46.6105 43.1945 42.6322C42.7138 40.0621 43.0743 37.4744 43.761 35.2564C44.4648 33.0383 45.4948 31.19 46.3703 30.081L49.2543 26.4723C49.7522 25.8386 50.7135 25.8386 51.2113 26.4723L65.7172 44.6389ZM70.2663 41.0302L50.971 16.8433C50.6105 16.3856 49.9067 16.3856 49.5462 16.8433L30.2337 41.0302L30.165 41.1183C26.6287 45.6423 24.5 51.381 24.5 57.6302C24.5 72.1882 36.036 84 50.25 84C64.464 84 76 72.1882 76 57.6302C76 51.381 73.8713 45.6423 70.3178 41.1183L70.2663 41.0302ZM34.8515 44.5685L36.5682 42.4033L36.6197 42.8082C36.654 43.125 36.7055 43.4419 36.7742 43.7588C37.89 49.7615 41.8898 54.7785 48.5505 58.6512C54.3528 62.031 57.7175 65.9214 58.696 70.199C59.108 71.9769 59.1767 73.7373 59.005 75.2687L58.9878 75.3568L58.902 75.392C56.2927 76.6946 53.34 77.434 50.2328 77.434C39.332 77.434 30.4912 68.3858 30.4912 57.2253C30.4912 52.4372 32.122 48.0188 34.8515 44.5685Z" fill="white"/>
</g>
<defs>
<clipPath id="clip0_1462_1193">
<rect width="100" height="100" fill="white"/>
</clipPath>
</defs>
</svg>
