<svg width="200" height="200" viewBox="0 0 200 200" fill="none" xmlns="http://www.w3.org/2000/svg">
<g clip-path="url(#clip0_1412_1130)">
<path d="M38.4 137.38C39.4922 136.286 40.9941 135.648 42.587 135.648H187.041C189.681 135.648 191.001 138.837 189.135 140.705L160.599 169.269C159.507 170.363 158.005 171 156.412 171H11.9577C9.31799 171 7.99815 167.811 9.86413 165.944L38.4 137.38Z" fill="url(#paint0_linear_1412_1130)"/>
<path d="M38.4 30.7312C39.5378 29.6378 41.0396 29 42.587 29H187.041C189.681 29 191.001 32.189 189.135 34.0568L160.599 62.6208C159.507 63.7142 158.005 64.3519 156.412 64.3519H11.9577C9.31799 64.3519 7.99815 61.163 9.86413 59.2952L38.4 30.7312Z" fill="url(#paint1_linear_1412_1130)"/>
<path d="M160.599 83.7116C159.507 82.6183 158.005 81.9805 156.412 81.9805H11.9577C9.31799 81.9805 7.99815 85.1694 9.86413 87.0373L38.4 115.601C39.4922 116.695 40.9941 117.332 42.587 117.332H187.041C189.681 117.332 191.001 114.143 189.135 112.276L160.599 83.7116Z" fill="url(#paint2_linear_1412_1130)"/>
</g>
<defs>
<linearGradient id="paint0_linear_1412_1130" x1="173.242" y1="11.937" x2="73.1127" y2="203.535" gradientUnits="userSpaceOnUse">
<stop stop-color="#00FFA3"/>
<stop offset="1" stop-color="#DC1FFF"/>
</linearGradient>
<linearGradient id="paint1_linear_1412_1130" x1="129.528" y1="-10.9082" x2="29.3987" y2="180.69" gradientUnits="userSpaceOnUse">
<stop stop-color="#00FFA3"/>
<stop offset="1" stop-color="#DC1FFF"/>
</linearGradient>
<linearGradient id="paint2_linear_1412_1130" x1="151.245" y1="0.439593" x2="51.1165" y2="192.038" gradientUnits="userSpaceOnUse">
<stop stop-color="#00FFA3"/>
<stop offset="1" stop-color="#DC1FFF"/>
</linearGradient>
<clipPath id="clip0_1412_1130">
<rect width="181" height="142" fill="white" transform="translate(9 29)"/>
</clipPath>
</defs>
</svg>
