<svg width="200" height="200" viewBox="0 0 200 200" fill="none" xmlns="http://www.w3.org/2000/svg">
<g clip-path="url(#clip0_1420_1103)">
<path fill-rule="evenodd" clip-rule="evenodd" d="M142.647 84.1349C150.031 93.5899 154.481 105.602 154.481 118.626C154.481 131.651 149.937 144.001 142.316 153.552L141.653 154.372L141.464 153.311C141.322 152.443 141.133 151.526 140.943 150.609C137.157 133.581 124.755 118.964 104.307 107.097C90.5333 99.1375 82.6287 89.5378 80.546 78.6356C79.2207 71.5925 80.2147 64.5013 82.108 58.423C84.0487 52.3448 86.8887 47.2796 89.3027 44.2405L97.2547 34.3513C98.6273 32.6147 101.278 32.6147 102.651 34.3513L142.647 84.1349ZM155.191 74.2457L101.988 7.96412C100.994 6.70988 99.0533 6.70988 98.0593 7.96412L44.8093 74.2457L44.62 74.4869C34.8693 86.8846 29 102.611 29 119.736C29 159.63 60.808 191.999 100 191.999C139.192 191.999 171 159.63 171 119.736C171 102.611 165.131 86.8846 155.333 74.4869L155.191 74.2457ZM57.542 83.9419L62.2753 78.0084L62.4173 79.118C62.512 79.9863 62.654 80.8546 62.8433 81.7229C65.92 98.1727 76.9487 111.921 95.314 122.534C111.313 131.796 120.59 142.457 123.288 154.179C124.424 159.051 124.613 163.875 124.14 168.072L124.093 168.314L123.856 168.41C116.661 171.98 108.52 174.006 99.9527 174.006C69.896 174.006 45.5193 149.211 45.5193 118.626C45.5193 105.505 50.016 93.397 57.542 83.9419Z" fill="#4DA2FF"/>
</g>
<defs>
<clipPath id="clip0_1420_1103">
<rect width="142" height="185" fill="white" transform="translate(29 7)"/>
</clipPath>
</defs>
</svg>
